<svg width="65" height="65" viewBox="0 0 65 65" fill="none" xmlns="http://www.w3.org/2000/svg">
<rect y="0.631653" width="64" height="64" rx="10" transform="rotate(-0.565504 0 0.631653)" fill="#2B2B2B"/>
<path d="M20.3704 15.2894H22.7407V17.6598H20.3704V15.2894ZM22.7407 15.2894H25.1111V17.6598H22.7407V15.2894ZM22.7407 17.6598H25.1111V20.0302H22.7407V17.6598ZM25.1111 17.6598H27.4815V20.0302H25.1111V17.6598ZM25.1111 20.0302H27.4815V22.4005H25.1111V20.0302ZM25.1111 22.4005H27.4815V24.7709H25.1111V22.4005ZM25.1111 24.7709H27.4815V27.1413H25.1111V24.7709ZM25.1111 15.2894H27.4815V17.6598H25.1111V15.2894ZM22.7407 20.0302H25.1111V22.4005H22.7407V20.0302ZM22.7407 22.4005H25.1111V24.7709H22.7407V22.4005ZM22.7407 24.7709H25.1111V27.1413H22.7407V24.7709ZM20.3704 24.7709H22.7407V27.1413H20.3704V24.7709ZM20.3704 22.4005H22.7407V24.7709H20.3704V22.4005ZM20.3704 20.0302H22.7407V22.4005H20.3704V20.0302ZM20.3704 17.6598H22.7407V20.0302H20.3704V17.6598ZM22.7407 27.1413H25.1111V29.5116H22.7407V27.1413ZM22.7407 29.5116H25.1111V31.882H22.7407V29.5116ZM22.7407 31.882H25.1111V34.2524H22.7407V31.882ZM22.7407 34.2524H25.1111V36.6227H22.7407V34.2524ZM25.1111 27.1413H27.4815V29.5116H25.1111V27.1413ZM25.1111 29.5116H27.4815V31.882H25.1111V29.5116ZM25.1111 31.882H27.4815V34.2524H25.1111V31.882ZM25.1111 34.2524H27.4815V36.6227H25.1111V34.2524ZM25.1111 36.6227H27.4815V38.9931H25.1111V36.6227ZM22.7407 36.6227H25.1111V38.9931H22.7407V36.6227ZM20.3704 36.6227H22.7407V38.9931H20.3704V36.6227ZM20.3704 34.2524H22.7407V36.6227H20.3704V34.2524ZM20.3704 31.882H22.7407V34.2524H20.3704V31.882ZM20.3704 29.5116H22.7407V31.882H20.3704V29.5116ZM20.3704 27.1413H22.7407V29.5116H20.3704V27.1413ZM20.3704 38.9931H22.7407V41.3635H20.3704V38.9931ZM22.7407 38.9931H25.1111V41.3635H22.7407V38.9931ZM25.1111 38.9931H27.4815V41.3635H25.1111V38.9931ZM27.4815 38.9931H29.8519V41.3635H27.4815V38.9931ZM27.4815 41.3635H29.8519V43.7339H27.4815V41.3635ZM25.1111 41.3635H27.4815V43.7339H25.1111V41.3635ZM22.7407 41.3635H25.1111V43.7339H22.7407V41.3635ZM25.1111 43.7339H27.4815V46.1042H25.1111V43.7339ZM27.4815 43.7339H29.8519V46.1042H27.4815V43.7339ZM29.8519 43.7339H32.2222V46.1042H29.8519V43.7339ZM29.8519 41.3635H32.2222V43.7339H29.8519V41.3635ZM29.8519 46.1042H32.2222V48.4746H29.8519V46.1042ZM27.4815 46.1042H29.8519V48.4746H27.4815V46.1042ZM29.8519 48.4746H32.2222V50.845H29.8519V48.4746ZM32.2222 48.4746H34.5926V50.845H32.2222V48.4746ZM32.2222 46.1042H34.5926V48.4746H32.2222V46.1042ZM34.5926 46.1042H36.963V48.4746H34.5926V46.1042ZM34.5926 43.7339H36.963V46.1042H34.5926V43.7339ZM34.5926 41.3635H36.963V43.7339H34.5926V41.3635ZM32.2222 41.3635H34.5926V43.7339H32.2222V41.3635ZM32.2222 43.7339H34.5926V46.1042H32.2222V43.7339ZM36.963 43.7339H39.3333V46.1042H36.963V43.7339ZM36.963 41.3635H39.3333V43.7339H36.963V41.3635ZM34.5926 38.9931H36.963V41.3635H34.5926V38.9931ZM36.963 38.9931H39.3333V41.3635H36.963V38.9931ZM39.3333 38.9931H41.7037V41.3635H39.3333V38.9931ZM39.3333 41.3635H41.7037V43.7339H39.3333V41.3635ZM41.7037 38.9931H44.0741V41.3635H41.7037V38.9931ZM41.7037 36.6227H44.0741V38.9931H41.7037V36.6227ZM41.7037 34.2524H44.0741V36.6227H41.7037V34.2524ZM41.7037 31.882H44.0741V34.2524H41.7037V31.882ZM39.3333 31.882H41.7037V34.2524H39.3333V31.882ZM39.3333 29.5116H41.7037V31.882H39.3333V29.5116ZM36.963 31.882H39.3333V34.2524H36.963V31.882ZM36.963 34.2524H39.3333V36.6227H36.963V34.2524ZM36.963 36.6227H39.3333V38.9931H36.963V36.6227ZM39.3333 36.6227H41.7037V38.9931H39.3333V36.6227ZM39.3333 34.2524H41.7037V36.6227H39.3333V34.2524ZM36.963 15.2894H39.3333V17.6598H36.963V15.2894ZM39.3333 15.2894H41.7037V17.6598H39.3333V15.2894ZM39.3333 17.6598H41.7037V20.0302H39.3333V17.6598ZM41.7037 17.6598H44.0741V20.0302H41.7037V17.6598ZM41.7037 20.0302H44.0741V22.4005H41.7037V20.0302ZM41.7037 15.2894H44.0741V17.6598H41.7037V15.2894ZM41.7037 22.4005H44.0741V24.7709H41.7037V22.4005ZM41.7037 24.7709H44.0741V27.1413H41.7037V24.7709ZM41.7037 27.1413H44.0741V29.5116H41.7037V27.1413ZM41.7037 29.5116H44.0741V31.882H41.7037V29.5116ZM36.963 29.5116H39.3333V31.882H36.963V29.5116ZM36.963 27.1413H39.3333V29.5116H36.963V27.1413ZM36.963 24.7709H39.3333V27.1413H36.963V24.7709ZM36.963 22.4005H39.3333V24.7709H36.963V22.4005ZM36.963 20.0302H39.3333V22.4005H36.963V20.0302ZM36.963 17.6598H39.3333V20.0302H36.963V17.6598ZM39.3333 20.0302H41.7037V22.4005H39.3333V20.0302ZM39.3333 22.4005H41.7037V24.7709H39.3333V22.4005ZM39.3333 24.7709H41.7037V27.1413H39.3333V24.7709ZM39.3333 27.1413H41.7037V29.5116H39.3333V27.1413Z" fill="#F5F5F5"/>
</svg>
