<svg width="399" height="65" viewBox="0 0 399 65" fill="none" xmlns="http://www.w3.org/2000/svg">
<rect y="0.631668" width="64" height="64" rx="10" transform="rotate(-0.565504 0 0.631668)" fill="#2B2B2B"/>
<path d="M20.3704 15.2894H22.7407V17.6598H20.3704V15.2894ZM22.7407 15.2894H25.1111V17.6598H22.7407V15.2894ZM22.7407 17.6598H25.1111V20.0302H22.7407V17.6598ZM25.1111 17.6598H27.4815V20.0302H25.1111V17.6598ZM25.1111 20.0302H27.4815V22.4005H25.1111V20.0302ZM25.1111 22.4005H27.4815V24.7709H25.1111V22.4005ZM25.1111 24.7709H27.4815V27.1413H25.1111V24.7709ZM25.1111 15.2894H27.4815V17.6598H25.1111V15.2894ZM22.7407 20.0302H25.1111V22.4005H22.7407V20.0302ZM22.7407 22.4005H25.1111V24.7709H22.7407V22.4005ZM22.7407 24.7709H25.1111V27.1413H22.7407V24.7709ZM20.3704 24.7709H22.7407V27.1413H20.3704V24.7709ZM20.3704 22.4005H22.7407V24.7709H20.3704V22.4005ZM20.3704 20.0302H22.7407V22.4005H20.3704V20.0302ZM20.3704 17.6598H22.7407V20.0302H20.3704V17.6598ZM22.7407 27.1413H25.1111V29.5117H22.7407V27.1413ZM22.7407 29.5117H25.1111V31.882H22.7407V29.5117ZM22.7407 31.882H25.1111V34.2524H22.7407V31.882ZM22.7407 34.2524H25.1111V36.6228H22.7407V34.2524ZM25.1111 27.1413H27.4815V29.5117H25.1111V27.1413ZM25.1111 29.5117H27.4815V31.882H25.1111V29.5117ZM25.1111 31.882H27.4815V34.2524H25.1111V31.882ZM25.1111 34.2524H27.4815V36.6228H25.1111V34.2524ZM25.1111 36.6228H27.4815V38.9931H25.1111V36.6228ZM22.7407 36.6228H25.1111V38.9931H22.7407V36.6228ZM20.3704 36.6228H22.7407V38.9931H20.3704V36.6228ZM20.3704 34.2524H22.7407V36.6228H20.3704V34.2524ZM20.3704 31.882H22.7407V34.2524H20.3704V31.882ZM20.3704 29.5117H22.7407V31.882H20.3704V29.5117ZM20.3704 27.1413H22.7407V29.5117H20.3704V27.1413ZM20.3704 38.9931H22.7407V41.3635H20.3704V38.9931ZM22.7407 38.9931H25.1111V41.3635H22.7407V38.9931ZM25.1111 38.9931H27.4815V41.3635H25.1111V38.9931ZM27.4815 38.9931H29.8519V41.3635H27.4815V38.9931ZM27.4815 41.3635H29.8519V43.7339H27.4815V41.3635ZM25.1111 41.3635H27.4815V43.7339H25.1111V41.3635ZM22.7407 41.3635H25.1111V43.7339H22.7407V41.3635ZM25.1111 43.7339H27.4815V46.1042H25.1111V43.7339ZM27.4815 43.7339H29.8519V46.1042H27.4815V43.7339ZM29.8519 43.7339H32.2222V46.1042H29.8519V43.7339ZM29.8519 41.3635H32.2222V43.7339H29.8519V41.3635ZM29.8519 46.1042H32.2222V48.4746H29.8519V46.1042ZM27.4815 46.1042H29.8519V48.4746H27.4815V46.1042ZM29.8519 48.4746H32.2222V50.845H29.8519V48.4746ZM32.2222 48.4746H34.5926V50.845H32.2222V48.4746ZM32.2222 46.1042H34.5926V48.4746H32.2222V46.1042ZM34.5926 46.1042H36.963V48.4746H34.5926V46.1042ZM34.5926 43.7339H36.963V46.1042H34.5926V43.7339ZM34.5926 41.3635H36.963V43.7339H34.5926V41.3635ZM32.2222 41.3635H34.5926V43.7339H32.2222V41.3635ZM32.2222 43.7339H34.5926V46.1042H32.2222V43.7339ZM36.963 43.7339H39.3333V46.1042H36.963V43.7339ZM36.963 41.3635H39.3333V43.7339H36.963V41.3635ZM34.5926 38.9931H36.963V41.3635H34.5926V38.9931ZM36.963 38.9931H39.3333V41.3635H36.963V38.9931ZM39.3333 38.9931H41.7037V41.3635H39.3333V38.9931ZM39.3333 41.3635H41.7037V43.7339H39.3333V41.3635ZM41.7037 38.9931H44.0741V41.3635H41.7037V38.9931ZM41.7037 36.6228H44.0741V38.9931H41.7037V36.6228ZM41.7037 34.2524H44.0741V36.6228H41.7037V34.2524ZM41.7037 31.882H44.0741V34.2524H41.7037V31.882ZM39.3333 31.882H41.7037V34.2524H39.3333V31.882ZM39.3333 29.5117H41.7037V31.882H39.3333V29.5117ZM36.963 31.882H39.3333V34.2524H36.963V31.882ZM36.963 34.2524H39.3333V36.6228H36.963V34.2524ZM36.963 36.6228H39.3333V38.9931H36.963V36.6228ZM39.3333 36.6228H41.7037V38.9931H39.3333V36.6228ZM39.3333 34.2524H41.7037V36.6228H39.3333V34.2524ZM36.963 15.2894H39.3333V17.6598H36.963V15.2894ZM39.3333 15.2894H41.7037V17.6598H39.3333V15.2894ZM39.3333 17.6598H41.7037V20.0302H39.3333V17.6598ZM41.7037 17.6598H44.0741V20.0302H41.7037V17.6598ZM41.7037 20.0302H44.0741V22.4005H41.7037V20.0302ZM41.7037 15.2894H44.0741V17.6598H41.7037V15.2894ZM41.7037 22.4005H44.0741V24.7709H41.7037V22.4005ZM41.7037 24.7709H44.0741V27.1413H41.7037V24.7709ZM41.7037 27.1413H44.0741V29.5117H41.7037V27.1413ZM41.7037 29.5117H44.0741V31.882H41.7037V29.5117ZM36.963 29.5117H39.3333V31.882H36.963V29.5117ZM36.963 27.1413H39.3333V29.5117H36.963V27.1413ZM36.963 24.7709H39.3333V27.1413H36.963V24.7709ZM36.963 22.4005H39.3333V24.7709H36.963V22.4005ZM36.963 20.0302H39.3333V22.4005H36.963V20.0302ZM36.963 17.6598H39.3333V20.0302H36.963V17.6598ZM39.3333 20.0302H41.7037V22.4005H39.3333V20.0302ZM39.3333 22.4005H41.7037V24.7709H39.3333V22.4005ZM39.3333 24.7709H41.7037V27.1413H39.3333V24.7709ZM39.3333 27.1413H41.7037V29.5117H39.3333V27.1413Z" fill="#F5F5F5"/>
<path d="M78.7407 15.4444H81.1111V17.8148H78.7407V15.4444ZM78.7407 17.8148H81.1111V20.1852H78.7407V17.8148ZM78.7407 20.1852H81.1111V22.5556H78.7407V20.1852ZM78.7407 22.5556H81.1111V24.9259H78.7407V22.5556ZM78.7407 24.9259H81.1111V27.2963H78.7407V24.9259ZM78.7407 27.2963H81.1111V29.6667H78.7407V27.2963ZM78.7407 29.6667H81.1111V32.037H78.7407V29.6667ZM78.7407 32.037H81.1111V34.4074H78.7407V32.037ZM78.7407 34.4074H81.1111V36.7778H78.7407V34.4074ZM78.7407 36.7778H81.1111V39.1481H78.7407V36.7778ZM78.7407 39.1481H81.1111V41.5185H78.7407V39.1481ZM78.7407 41.5185H81.1111V43.8889H78.7407V41.5185ZM78.7407 43.8889H81.1111V46.2593H78.7407V43.8889ZM78.7407 46.2593H81.1111V48.6296H78.7407V46.2593ZM78.7407 48.6296H81.1111V51H78.7407V48.6296ZM76.3704 48.6296H78.7407V51H76.3704V48.6296ZM76.3704 46.2593H78.7407V48.6296H76.3704V46.2593ZM76.3704 43.8889H78.7407V46.2593H76.3704V43.8889ZM76.3704 17.8148H78.7407V20.1852H76.3704V17.8148ZM76.3704 15.4444H78.7407V17.8148H76.3704V15.4444ZM76.3704 20.1852H78.7407V22.5556H76.3704V20.1852ZM76.3704 22.5556H78.7407V24.9259H76.3704V22.5556ZM76.3704 24.9259H78.7407V27.2963H76.3704V24.9259ZM76.3704 27.2963H78.7407V29.6667H76.3704V27.2963ZM76.3704 29.6667H78.7407V32.037H76.3704V29.6667ZM76.3704 32.037H78.7407V34.4074H76.3704V32.037ZM76.3704 34.4074H78.7407V36.7778H76.3704V34.4074ZM76.3704 36.7778H78.7407V39.1481H76.3704V36.7778ZM76.3704 39.1481H78.7407V41.5185H76.3704V39.1481ZM76.3704 41.5185H78.7407V43.8889H76.3704V41.5185ZM81.1111 48.6296H83.4815V51H81.1111V48.6296ZM81.1111 46.2593H83.4815V48.6296H81.1111V46.2593ZM81.1111 43.8889H83.4815V46.2593H81.1111V43.8889ZM81.1111 41.5185H83.4815V43.8889H81.1111V41.5185ZM81.1111 36.7778H83.4815V39.1481H81.1111V36.7778ZM81.1111 34.4074H83.4815V36.7778H81.1111V34.4074ZM81.1111 32.037H83.4815V34.4074H81.1111V32.037ZM81.1111 29.6667H83.4815V32.037H81.1111V29.6667ZM81.1111 27.2963H83.4815V29.6667H81.1111V27.2963ZM81.1111 24.9259H83.4815V27.2963H81.1111V24.9259ZM81.1111 15.4444H83.4815V17.8148H81.1111V15.4444ZM81.1111 17.8148H83.4815V20.1852H81.1111V17.8148ZM81.1111 20.1852H83.4815V22.5556H81.1111V20.1852ZM81.1111 22.5556H83.4815V24.9259H81.1111V22.5556ZM81.1111 39.1481H83.4815V41.5185H81.1111V39.1481ZM83.4815 48.6296H85.8519V51H83.4815V48.6296ZM85.8519 48.6296H88.2222V51H85.8519V48.6296ZM88.2222 48.6296H90.5926V51H88.2222V48.6296ZM88.2222 46.2593H90.5926V48.6296H88.2222V46.2593ZM88.2222 43.8889H90.5926V46.2593H88.2222V43.8889ZM85.8519 43.8889H88.2222V46.2593H85.8519V43.8889ZM85.8519 46.2593H88.2222V48.6296H85.8519V46.2593ZM83.4815 46.2593H85.8519V48.6296H83.4815V46.2593ZM83.4815 43.8889H85.8519V46.2593H83.4815V43.8889ZM90.5926 43.8889H92.963V46.2593H90.5926V43.8889ZM90.5926 46.2593H92.963V48.6296H90.5926V46.2593ZM90.5926 48.6296H92.963V51H90.5926V48.6296ZM92.963 48.6296H95.3333V51H92.963V48.6296ZM92.963 46.2593H95.3333V48.6296H92.963V46.2593ZM92.963 43.8889H95.3333V46.2593H92.963V43.8889ZM95.3333 43.8889H97.7037V46.2593H95.3333V43.8889ZM95.3333 46.2593H97.7037V48.6296H95.3333V46.2593ZM95.3333 48.6296H97.7037V51H95.3333V48.6296ZM83.4815 15.4444H85.8519V17.8148H83.4815V15.4444ZM85.8519 15.4444H88.2222V17.8148H85.8519V15.4444ZM88.2222 15.4444H90.5926V17.8148H88.2222V15.4444ZM90.5926 15.4444H92.963V17.8148H90.5926V15.4444ZM92.963 15.4444H95.3333V17.8148H92.963V15.4444ZM95.3333 15.4444H97.7037V17.8148H95.3333V15.4444ZM95.3333 17.8148H97.7037V20.1852H95.3333V17.8148ZM95.3333 20.1852H97.7037V22.5556H95.3333V20.1852ZM92.963 20.1852H95.3333V22.5556H92.963V20.1852ZM90.5926 20.1852H92.963V22.5556H90.5926V20.1852ZM88.2222 20.1852H90.5926V22.5556H88.2222V20.1852ZM85.8519 20.1852H88.2222V22.5556H85.8519V20.1852ZM85.8519 17.8148H88.2222V20.1852H85.8519V17.8148ZM83.4815 17.8148H85.8519V20.1852H83.4815V17.8148ZM83.4815 20.1852H85.8519V22.5556H83.4815V20.1852ZM88.2222 17.8148H90.5926V20.1852H88.2222V17.8148ZM90.5926 17.8148H92.963V20.1852H90.5926V17.8148ZM92.963 17.8148H95.3333V20.1852H92.963V17.8148ZM83.4815 29.6667H85.8519V32.037H83.4815V29.6667ZM83.4815 32.037H85.8519V34.4074H83.4815V32.037ZM83.4815 34.4074H85.8519V36.7778H83.4815V34.4074ZM85.8519 34.4074H88.2222V36.7778H85.8519V34.4074ZM85.8519 32.037H88.2222V34.4074H85.8519V32.037ZM85.8519 29.6667H88.2222V32.037H85.8519V29.6667ZM88.2222 29.6667H90.5926V32.037H88.2222V29.6667ZM88.2222 32.037H90.5926V34.4074H88.2222V32.037ZM90.5926 32.037H92.963V34.4074H90.5926V32.037ZM90.5926 29.6667H92.963V32.037H90.5926V29.6667ZM90.5926 34.4074H92.963V36.7778H90.5926V34.4074ZM88.2222 34.4074H90.5926V36.7778H88.2222V34.4074ZM92.963 29.6667H95.3333V32.037H92.963V29.6667ZM92.963 32.037H95.3333V34.4074H92.963V32.037ZM92.963 34.4074H95.3333V36.7778H92.963V34.4074ZM107.174 15.4444H109.544V17.8148H107.174V15.4444ZM109.544 15.4444H111.914V17.8148H109.544V15.4444ZM111.914 15.4444H114.285V17.8148H111.914V15.4444ZM114.285 15.4444H116.655V17.8148H114.285V15.4444ZM116.655 15.4444H119.025V17.8148H116.655V15.4444ZM119.025 15.4444H121.396V17.8148H119.025V15.4444ZM119.025 17.8148H121.396V20.1852H119.025V17.8148ZM121.396 17.8148H123.766V20.1852H121.396V17.8148ZM116.655 17.8148H119.025V20.1852H116.655V17.8148ZM114.285 17.8148H116.655V20.1852H114.285V17.8148ZM111.914 17.8148H114.285V20.1852H111.914V17.8148ZM109.544 17.8148H111.914V20.1852H109.544V17.8148ZM107.174 17.8148H109.544V20.1852H107.174V17.8148ZM104.803 20.1852H107.174V22.5556H104.803V20.1852ZM104.803 17.8148H107.174V20.1852H104.803V17.8148ZM102.433 20.1852H104.803V22.5556H102.433V20.1852ZM107.174 20.1852H109.544V22.5556H107.174V20.1852ZM109.544 20.1852H111.914V22.5556H109.544V20.1852ZM111.914 20.1852H114.285V22.5556H111.914V20.1852ZM114.285 20.1852H116.655V22.5556H114.285V20.1852ZM116.655 20.1852H119.025V22.5556H116.655V20.1852ZM119.025 20.1852H121.396V22.5556H119.025V20.1852ZM121.396 20.1852H123.766V22.5556H121.396V20.1852ZM123.766 20.1852H126.137V22.5556H123.766V20.1852ZM123.766 22.5556H126.137V24.9259H123.766V22.5556ZM121.396 22.5556H123.766V24.9259H121.396V22.5556ZM119.025 22.5556H121.396V24.9259H119.025V22.5556ZM123.766 39.1481H126.137V41.5185H123.766V39.1481ZM123.766 41.5185H126.137V43.8889H123.766V41.5185ZM123.766 43.8889H126.137V46.2593H123.766V43.8889ZM121.396 43.8889H123.766V46.2593H121.396V43.8889ZM121.396 41.5185H123.766V43.8889H121.396V41.5185ZM121.396 39.1481H123.766V41.5185H121.396V39.1481ZM119.025 39.1481H121.396V41.5185H119.025V39.1481ZM119.025 41.5185H121.396V43.8889H119.025V41.5185ZM116.655 41.5185H119.025V43.8889H116.655V41.5185ZM119.025 43.8889H121.396V46.2593H119.025V43.8889ZM121.396 46.2593H123.766V48.6296H121.396V46.2593ZM119.025 46.2593H121.396V48.6296H119.025V46.2593ZM116.655 43.8889H119.025V46.2593H116.655V43.8889ZM116.655 46.2593H119.025V48.6296H116.655V46.2593ZM119.025 48.6296H121.396V51H119.025V48.6296ZM116.655 48.6296H119.025V51H116.655V48.6296ZM114.285 48.6296H116.655V51H114.285V48.6296ZM111.914 48.6296H114.285V51H111.914V48.6296ZM109.544 48.6296H111.914V51H109.544V48.6296ZM107.174 48.6296H109.544V51H107.174V48.6296ZM107.174 46.2593H109.544V48.6296H107.174V46.2593ZM109.544 46.2593H111.914V48.6296H109.544V46.2593ZM109.544 43.8889H111.914V46.2593H109.544V43.8889ZM111.914 43.8889H114.285V46.2593H111.914V43.8889ZM114.285 43.8889H116.655V46.2593H114.285V43.8889ZM114.285 46.2593H116.655V48.6296H114.285V46.2593ZM111.914 46.2593H114.285V48.6296H111.914V46.2593ZM104.803 46.2593H107.174V48.6296H104.803V46.2593ZM107.174 43.8889H109.544V46.2593H107.174V43.8889ZM109.544 41.5185H111.914V43.8889H109.544V41.5185ZM107.174 41.5185H109.544V43.8889H107.174V41.5185ZM104.803 41.5185H107.174V43.8889H104.803V41.5185ZM104.803 43.8889H107.174V46.2593H104.803V43.8889ZM102.433 43.8889H104.803V46.2593H102.433V43.8889ZM102.433 41.5185H104.803V43.8889H102.433V41.5185ZM102.433 39.1481H104.803V41.5185H102.433V39.1481ZM102.433 36.7778H104.803V39.1481H102.433V36.7778ZM102.433 34.4074H104.803V36.7778H102.433V34.4074ZM102.433 32.037H104.803V34.4074H102.433V32.037ZM102.433 29.6667H104.803V32.037H102.433V29.6667ZM102.433 27.2963H104.803V29.6667H102.433V27.2963ZM102.433 24.9259H104.803V27.2963H102.433V24.9259ZM102.433 22.5556H104.803V24.9259H102.433V22.5556ZM104.803 22.5556H107.174V24.9259H104.803V22.5556ZM107.174 22.5556H109.544V24.9259H107.174V22.5556ZM109.544 22.5556H111.914V24.9259H109.544V22.5556ZM107.174 24.9259H109.544V27.2963H107.174V24.9259ZM107.174 27.2963H109.544V29.6667H107.174V27.2963ZM107.174 29.6667H109.544V32.037H107.174V29.6667ZM107.174 32.037H109.544V34.4074H107.174V32.037ZM107.174 34.4074H109.544V36.7778H107.174V34.4074ZM107.174 36.7778H109.544V39.1481H107.174V36.7778ZM107.174 39.1481H109.544V41.5185H107.174V39.1481ZM104.803 39.1481H107.174V41.5185H104.803V39.1481ZM104.803 36.7778H107.174V39.1481H104.803V36.7778ZM104.803 34.4074H107.174V36.7778H104.803V34.4074ZM104.803 32.037H107.174V34.4074H104.803V32.037ZM104.803 29.6667H107.174V32.037H104.803V29.6667ZM104.803 27.2963H107.174V29.6667H104.803V27.2963ZM104.803 24.9259H107.174V27.2963H104.803V24.9259ZM114.285 29.6667H116.655V32.037H114.285V29.6667ZM116.655 29.6667H119.025V32.037H116.655V29.6667ZM119.025 29.6667H121.396V32.037H119.025V29.6667ZM121.396 29.6667H123.766V32.037H121.396V29.6667ZM123.766 29.6667H126.137V32.037H123.766V29.6667ZM123.766 32.037H126.137V34.4074H123.766V32.037ZM123.766 34.4074H126.137V36.7778H123.766V34.4074ZM123.766 36.7778H126.137V39.1481H123.766V36.7778ZM121.396 36.7778H123.766V39.1481H121.396V36.7778ZM119.025 36.7778H121.396V39.1481H119.025V36.7778ZM119.025 34.4074H121.396V36.7778H119.025V34.4074ZM119.025 32.037H121.396V34.4074H119.025V32.037ZM121.396 32.037H123.766V34.4074H121.396V32.037ZM121.396 34.4074H123.766V36.7778H121.396V34.4074ZM116.655 34.4074H119.025V36.7778H116.655V34.4074ZM114.285 34.4074H116.655V36.7778H114.285V34.4074ZM114.285 32.037H116.655V34.4074H114.285V32.037ZM116.655 32.037H119.025V34.4074H116.655V32.037ZM140.352 15.4444H142.722V17.8148H140.352V15.4444ZM142.722 15.4444H145.093V17.8148H142.722V15.4444ZM142.722 17.8148H145.093V20.1852H142.722V17.8148ZM145.093 17.8148H147.463V20.1852H145.093V17.8148ZM140.352 17.8148H142.722V20.1852H140.352V17.8148ZM137.981 17.8148H140.352V20.1852H137.981V17.8148ZM137.981 20.1852H140.352V22.5556H137.981V20.1852ZM135.611 20.1852H137.981V22.5556H135.611V20.1852ZM140.352 20.1852H142.722V22.5556H140.352V20.1852ZM142.722 20.1852H145.093V22.5556H142.722V20.1852ZM145.093 20.1852H147.463V22.5556H145.093V20.1852ZM147.463 20.1852H149.833V22.5556H147.463V20.1852ZM147.463 22.5556H149.833V24.9259H147.463V22.5556ZM149.833 22.5556H152.204V24.9259H149.833V22.5556ZM145.093 22.5556H147.463V24.9259H145.093V22.5556ZM142.722 22.5556H145.093V24.9259H142.722V22.5556ZM140.352 22.5556H142.722V24.9259H140.352V22.5556ZM137.981 22.5556H140.352V24.9259H137.981V22.5556ZM135.611 22.5556H137.981V24.9259H135.611V22.5556ZM133.241 22.5556H135.611V24.9259H133.241V22.5556ZM137.981 24.9259H140.352V27.2963H137.981V24.9259ZM135.611 24.9259H137.981V27.2963H135.611V24.9259ZM133.241 24.9259H135.611V27.2963H133.241V24.9259ZM130.87 24.9259H133.241V27.2963H130.87V24.9259ZM130.87 27.2963H133.241V29.6667H130.87V27.2963ZM130.87 29.6667H133.241V32.037H130.87V29.6667ZM133.241 29.6667H135.611V32.037H133.241V29.6667ZM133.241 27.2963H135.611V29.6667H133.241V27.2963ZM135.611 27.2963H137.981V29.6667H135.611V27.2963ZM135.611 29.6667H137.981V32.037H135.611V29.6667ZM135.611 32.037H137.981V34.4074H135.611V32.037ZM133.241 32.037H135.611V34.4074H133.241V32.037ZM130.87 32.037H133.241V34.4074H130.87V32.037ZM130.87 34.4074H133.241V36.7778H130.87V34.4074ZM133.241 34.4074H135.611V36.7778H133.241V34.4074ZM135.611 34.4074H137.981V36.7778H135.611V34.4074ZM137.981 34.4074H140.352V36.7778H137.981V34.4074ZM140.352 34.4074H142.722V36.7778H140.352V34.4074ZM142.722 34.4074H145.093V36.7778H142.722V34.4074ZM145.093 34.4074H147.463V36.7778H145.093V34.4074ZM147.463 32.037H149.833V34.4074H147.463V32.037ZM149.833 32.037H152.204V34.4074H149.833V32.037ZM149.833 34.4074H152.204V36.7778H149.833V34.4074ZM147.463 34.4074H149.833V36.7778H147.463V34.4074ZM152.204 34.4074H154.574V36.7778H152.204V34.4074ZM152.204 32.037H154.574V34.4074H152.204V32.037ZM152.204 29.6667H154.574V32.037H152.204V29.6667ZM152.204 27.2963H154.574V29.6667H152.204V27.2963ZM152.204 24.9259H154.574V27.2963H152.204V24.9259ZM149.833 24.9259H152.204V27.2963H149.833V24.9259ZM147.463 24.9259H149.833V27.2963H147.463V24.9259ZM145.093 24.9259H147.463V27.2963H145.093V24.9259ZM149.833 27.2963H152.204V29.6667H149.833V27.2963ZM149.833 29.6667H152.204V32.037H149.833V29.6667ZM147.463 29.6667H149.833V32.037H147.463V29.6667ZM147.463 27.2963H149.833V29.6667H147.463V27.2963ZM130.87 36.7778H133.241V39.1481H130.87V36.7778ZM133.241 36.7778H135.611V39.1481H133.241V36.7778ZM135.611 36.7778H137.981V39.1481H135.611V36.7778ZM137.981 36.7778H140.352V39.1481H137.981V36.7778ZM140.352 36.7778H142.722V39.1481H140.352V36.7778ZM142.722 36.7778H145.093V39.1481H142.722V36.7778ZM145.093 36.7778H147.463V39.1481H145.093V36.7778ZM147.463 36.7778H149.833V39.1481H147.463V36.7778ZM149.833 36.7778H152.204V39.1481H149.833V36.7778ZM152.204 36.7778H154.574V39.1481H152.204V36.7778ZM152.204 39.1481H154.574V41.5185H152.204V39.1481ZM149.833 39.1481H152.204V41.5185H149.833V39.1481ZM147.463 39.1481H149.833V41.5185H147.463V39.1481ZM145.093 39.1481H147.463V41.5185H145.093V39.1481ZM142.722 39.1481H145.093V41.5185H142.722V39.1481ZM140.352 39.1481H142.722V41.5185H140.352V39.1481ZM137.981 39.1481H140.352V41.5185H137.981V39.1481ZM133.241 39.1481H135.611V41.5185H133.241V39.1481ZM130.87 39.1481H133.241V41.5185H130.87V39.1481ZM135.611 39.1481H137.981V41.5185H135.611V39.1481ZM135.611 41.5185H137.981V43.8889H135.611V41.5185ZM135.611 43.8889H137.981V46.2593H135.611V43.8889ZM135.611 46.2593H137.981V48.6296H135.611V46.2593ZM135.611 48.6296H137.981V51H135.611V48.6296ZM133.241 48.6296H135.611V51H133.241V48.6296ZM130.87 48.6296H133.241V51H130.87V48.6296ZM130.87 46.2593H133.241V48.6296H130.87V46.2593ZM130.87 43.8889H133.241V46.2593H130.87V43.8889ZM130.87 41.5185H133.241V43.8889H130.87V41.5185ZM133.241 41.5185H135.611V43.8889H133.241V41.5185ZM133.241 43.8889H135.611V46.2593H133.241V43.8889ZM133.241 46.2593H135.611V48.6296H133.241V46.2593ZM147.463 41.5185H149.833V43.8889H147.463V41.5185ZM147.463 43.8889H149.833V46.2593H147.463V43.8889ZM147.463 46.2593H149.833V48.6296H147.463V46.2593ZM147.463 48.6296H149.833V51H147.463V48.6296ZM149.833 48.6296H152.204V51H149.833V48.6296ZM152.204 48.6296H154.574V51H152.204V48.6296ZM152.204 46.2593H154.574V48.6296H152.204V46.2593ZM152.204 43.8889H154.574V46.2593H152.204V43.8889ZM152.204 41.5185H154.574V43.8889H152.204V41.5185ZM149.833 41.5185H152.204V43.8889H149.833V41.5185ZM149.833 43.8889H152.204V46.2593H149.833V43.8889ZM149.833 46.2593H152.204V48.6296H149.833V46.2593ZM159.308 15.4444H161.678V17.8148H159.308V15.4444ZM161.678 15.4444H164.049V17.8148H161.678V15.4444ZM164.049 15.4444H166.419V17.8148H164.049V15.4444ZM166.419 15.4444H168.789V17.8148H166.419V15.4444ZM168.789 15.4444H171.16V17.8148H168.789V15.4444ZM171.16 15.4444H173.53V17.8148H171.16V15.4444ZM173.53 15.4444H175.9V17.8148H173.53V15.4444ZM175.9 15.4444H178.271V17.8148H175.9V15.4444ZM175.9 17.8148H178.271V20.1852H175.9V17.8148ZM178.271 17.8148H180.641V20.1852H178.271V17.8148ZM173.53 17.8148H175.9V20.1852H173.53V17.8148ZM171.16 17.8148H173.53V20.1852H171.16V17.8148ZM168.789 17.8148H171.16V20.1852H168.789V17.8148ZM166.419 17.8148H168.789V20.1852H166.419V17.8148ZM164.049 17.8148H166.419V20.1852H164.049V17.8148ZM161.678 17.8148H164.049V20.1852H161.678V17.8148ZM159.308 17.8148H161.678V20.1852H159.308V17.8148ZM159.308 20.1852H161.678V22.5556H159.308V20.1852ZM161.678 20.1852H164.049V22.5556H161.678V20.1852ZM164.049 20.1852H166.419V22.5556H164.049V20.1852ZM166.419 20.1852H168.789V22.5556H166.419V20.1852ZM171.16 20.1852H173.53V22.5556H171.16V20.1852ZM173.53 20.1852H175.9V22.5556H173.53V20.1852ZM175.9 20.1852H178.271V22.5556H175.9V20.1852ZM178.271 20.1852H180.641V22.5556H178.271V20.1852ZM180.641 20.1852H183.012V22.5556H180.641V20.1852ZM168.789 20.1852H171.16V22.5556H168.789V20.1852ZM173.53 22.5556H175.9V24.9259H173.53V22.5556ZM175.9 22.5556H178.271V24.9259H175.9V22.5556ZM180.641 22.5556H183.012V24.9259H180.641V22.5556ZM178.271 22.5556H180.641V24.9259H178.271V22.5556ZM178.271 24.9259H180.641V27.2963H178.271V24.9259ZM178.271 29.6667H180.641V32.037H178.271V29.6667ZM180.641 29.6667H183.012V32.037H180.641V29.6667ZM180.641 32.037H183.012V34.4074H180.641V32.037ZM180.641 24.9259H183.012V27.2963H180.641V24.9259ZM175.9 29.6667H178.271V32.037H175.9V29.6667ZM175.9 24.9259H178.271V27.2963H175.9V24.9259ZM173.53 29.6667H175.9V32.037H173.53V29.6667ZM175.9 32.037H178.271V34.4074H175.9V32.037ZM178.271 32.037H180.641V34.4074H178.271V32.037ZM178.271 34.4074H180.641V36.7778H178.271V34.4074ZM173.53 36.7778H175.9V39.1481H173.53V36.7778ZM175.9 36.7778H178.271V39.1481H175.9V36.7778ZM175.9 34.4074H178.271V36.7778H175.9V34.4074ZM173.53 34.4074H175.9V36.7778H173.53V34.4074ZM173.53 32.037H175.9V34.4074H173.53V32.037ZM171.16 36.7778H173.53V39.1481H171.16V36.7778ZM168.789 36.7778H171.16V39.1481H168.789V36.7778ZM166.419 36.7778H168.789V39.1481H166.419V36.7778ZM166.419 34.4074H168.789V36.7778H166.419V34.4074ZM168.789 34.4074H171.16V36.7778H168.789V34.4074ZM168.789 32.037H171.16V34.4074H168.789V32.037ZM171.16 32.037H173.53V34.4074H171.16V32.037ZM166.419 32.037H168.789V34.4074H166.419V32.037ZM171.16 34.4074H173.53V36.7778H171.16V34.4074ZM161.678 22.5556H164.049V24.9259H161.678V22.5556ZM164.049 22.5556H166.419V24.9259H164.049V22.5556ZM164.049 24.9259H166.419V27.2963H164.049V24.9259ZM164.049 27.2963H166.419V29.6667H164.049V27.2963ZM164.049 29.6667H166.419V32.037H164.049V29.6667ZM161.678 29.6667H164.049V32.037H161.678V29.6667ZM159.308 29.6667H161.678V32.037H159.308V29.6667ZM159.308 27.2963H161.678V29.6667H159.308V27.2963ZM159.308 24.9259H161.678V27.2963H159.308V24.9259ZM159.308 22.5556H161.678V24.9259H159.308V22.5556ZM161.678 27.2963H164.049V29.6667H161.678V27.2963ZM161.678 32.037H164.049V34.4074H161.678V32.037ZM161.678 24.9259H164.049V27.2963H161.678V24.9259ZM159.308 32.037H161.678V34.4074H159.308V32.037ZM159.308 34.4074H161.678V36.7778H159.308V34.4074ZM161.678 34.4074H164.049V36.7778H161.678V34.4074ZM164.049 32.037H166.419V34.4074H164.049V32.037ZM164.049 34.4074H166.419V36.7778H164.049V34.4074ZM164.049 36.7778H166.419V39.1481H164.049V36.7778ZM164.049 39.1481H166.419V41.5185H164.049V39.1481ZM164.049 41.5185H166.419V43.8889H164.049V41.5185ZM164.049 43.8889H166.419V46.2593H164.049V43.8889ZM164.049 48.6296H166.419V51H164.049V48.6296ZM161.678 48.6296H164.049V51H161.678V48.6296ZM159.308 48.6296H161.678V51H159.308V48.6296ZM159.308 46.2593H161.678V48.6296H159.308V46.2593ZM159.308 43.8889H161.678V46.2593H159.308V43.8889ZM159.308 41.5185H161.678V43.8889H159.308V41.5185ZM159.308 39.1481H161.678V41.5185H159.308V39.1481ZM159.308 36.7778H161.678V39.1481H159.308V36.7778ZM161.678 36.7778H164.049V39.1481H161.678V36.7778ZM161.678 39.1481H164.049V41.5185H161.678V39.1481ZM161.678 41.5185H164.049V43.8889H161.678V41.5185ZM161.678 43.8889H164.049V46.2593H161.678V43.8889ZM161.678 46.2593H164.049V48.6296H161.678V46.2593ZM164.049 46.2593H166.419V48.6296H164.049V46.2593ZM180.641 27.2963H183.012V29.6667H180.641V27.2963ZM178.271 27.2963H180.641V29.6667H178.271V27.2963ZM175.9 27.2963H178.271V29.6667H175.9V27.2963ZM180.641 48.6296H183.012V51H180.641V48.6296ZM180.641 46.2593H183.012V48.6296H180.641V46.2593ZM180.641 43.8889H183.012V46.2593H180.641V43.8889ZM178.271 43.8889H180.641V46.2593H178.271V43.8889ZM175.9 43.8889H178.271V46.2593H175.9V43.8889ZM175.9 46.2593H178.271V48.6296H175.9V46.2593ZM175.9 48.6296H178.271V51H175.9V48.6296ZM178.271 48.6296H180.641V51H178.271V48.6296ZM178.271 46.2593H180.641V48.6296H178.271V46.2593ZM175.9 41.5185H178.271V43.8889H175.9V41.5185ZM175.9 39.1481H178.271V41.5185H175.9V39.1481ZM173.53 39.1481H175.9V41.5185H173.53V39.1481ZM180.641 41.5185H183.012V43.8889H180.641V41.5185ZM180.641 39.1481H183.012V41.5185H180.641V39.1481ZM178.271 41.5185H180.641V43.8889H178.271V41.5185ZM178.271 39.1481H180.641V41.5185H178.271V39.1481ZM178.271 36.7778H180.641V39.1481H178.271V36.7778ZM187.745 15.4444H190.116V17.8148H187.745V15.4444ZM190.116 15.4444H192.486V17.8148H190.116V15.4444ZM190.116 17.8148H192.486V20.1852H190.116V17.8148ZM192.486 17.8148H194.856V20.1852H192.486V17.8148ZM192.486 20.1852H194.856V22.5556H192.486V20.1852ZM192.486 15.4444H194.856V17.8148H192.486V15.4444ZM187.745 17.8148H190.116V20.1852H187.745V17.8148ZM187.745 20.1852H190.116V22.5556H187.745V20.1852ZM187.745 22.5556H190.116V24.9259H187.745V22.5556ZM187.745 24.9259H190.116V27.2963H187.745V24.9259ZM190.116 24.9259H192.486V27.2963H190.116V24.9259ZM190.116 22.5556H192.486V24.9259H190.116V22.5556ZM192.486 22.5556H194.856V24.9259H192.486V22.5556ZM190.116 20.1852H192.486V22.5556H190.116V20.1852ZM192.486 24.9259H194.856V27.2963H192.486V24.9259ZM192.486 27.2963H194.856V29.6667H192.486V27.2963ZM190.116 27.2963H192.486V29.6667H190.116V27.2963ZM190.116 29.6667H192.486V32.037H190.116V29.6667ZM187.745 27.2963H190.116V29.6667H187.745V27.2963ZM187.745 29.6667H190.116V32.037H187.745V29.6667ZM187.745 32.037H190.116V34.4074H187.745V32.037ZM187.745 34.4074H190.116V36.7778H187.745V34.4074ZM187.745 36.7778H190.116V39.1481H187.745V36.7778ZM187.745 39.1481H190.116V41.5185H187.745V39.1481ZM187.745 41.5185H190.116V43.8889H187.745V41.5185ZM187.745 48.6296H190.116V51H187.745V48.6296ZM187.745 46.2593H190.116V48.6296H187.745V46.2593ZM187.745 43.8889H190.116V46.2593H187.745V43.8889ZM190.116 43.8889H192.486V46.2593H190.116V43.8889ZM192.486 43.8889H194.856V46.2593H192.486V43.8889ZM192.486 46.2593H194.856V48.6296H192.486V46.2593ZM192.486 48.6296H194.856V51H192.486V48.6296ZM190.116 48.6296H192.486V51H190.116V48.6296ZM190.116 46.2593H192.486V48.6296H190.116V46.2593ZM201.968 41.5185H204.338V43.8889H201.968V41.5185ZM201.968 43.8889H204.338V46.2593H201.968V43.8889ZM201.968 46.2593H204.338V48.6296H201.968V46.2593ZM201.968 48.6296H204.338V51H201.968V48.6296ZM204.338 48.6296H206.708V51H204.338V48.6296ZM206.708 48.6296H209.079V51H206.708V48.6296ZM206.708 46.2593H209.079V48.6296H206.708V46.2593ZM206.708 43.8889H209.079V46.2593H206.708V43.8889ZM204.338 43.8889H206.708V46.2593H204.338V43.8889ZM204.338 46.2593H206.708V48.6296H204.338V46.2593ZM204.338 41.5185H206.708V43.8889H204.338V41.5185ZM206.708 41.5185H209.079V43.8889H206.708V41.5185ZM206.708 39.1481H209.079V41.5185H206.708V39.1481ZM206.708 36.7778H209.079V39.1481H206.708V36.7778ZM204.338 36.7778H206.708V39.1481H204.338V36.7778ZM204.338 39.1481H206.708V41.5185H204.338V39.1481ZM201.968 39.1481H204.338V41.5185H201.968V39.1481ZM201.968 36.7778H204.338V39.1481H201.968V36.7778ZM199.597 36.7778H201.968V39.1481H199.597V36.7778ZM201.968 34.4074H204.338V36.7778H201.968V34.4074ZM204.338 34.4074H206.708V36.7778H204.338V34.4074ZM199.597 34.4074H201.968V36.7778H199.597V34.4074ZM197.227 34.4074H199.597V36.7778H197.227V34.4074ZM194.856 34.4074H197.227V36.7778H194.856V34.4074ZM192.486 41.5185H194.856V43.8889H192.486V41.5185ZM192.486 39.1481H194.856V41.5185H192.486V39.1481ZM192.486 36.7778H194.856V39.1481H192.486V36.7778ZM192.486 34.4074H194.856V36.7778H192.486V34.4074ZM190.116 34.4074H192.486V36.7778H190.116V34.4074ZM190.116 36.7778H192.486V39.1481H190.116V36.7778ZM190.116 39.1481H192.486V41.5185H190.116V39.1481ZM190.116 41.5185H192.486V43.8889H190.116V41.5185ZM190.116 32.037H192.486V34.4074H190.116V32.037ZM192.486 32.037H194.856V34.4074H192.486V32.037ZM194.856 32.037H197.227V34.4074H194.856V32.037ZM197.227 32.037H199.597V34.4074H197.227V32.037ZM199.597 32.037H201.968V34.4074H199.597V32.037ZM201.968 32.037H204.338V34.4074H201.968V32.037ZM199.597 29.6667H201.968V32.037H199.597V29.6667ZM197.227 29.6667H199.597V32.037H197.227V29.6667ZM194.856 29.6667H197.227V32.037H194.856V29.6667ZM192.486 29.6667H194.856V32.037H192.486V29.6667ZM201.968 29.6667H204.338V32.037H201.968V29.6667ZM204.338 29.6667H206.708V32.037H204.338V29.6667ZM201.968 27.2963H204.338V29.6667H201.968V27.2963ZM199.597 27.2963H201.968V29.6667H199.597V27.2963ZM204.338 27.2963H206.708V29.6667H204.338V27.2963ZM206.708 27.2963H209.079V29.6667H206.708V27.2963ZM206.708 24.9259H209.079V27.2963H206.708V24.9259ZM206.708 22.5556H209.079V24.9259H206.708V22.5556ZM206.708 20.1852H209.079V22.5556H206.708V20.1852ZM201.968 15.4444H204.338V17.8148H201.968V15.4444ZM204.338 15.4444H206.708V17.8148H204.338V15.4444ZM206.708 15.4444H209.079V17.8148H206.708V15.4444ZM206.708 17.8148H209.079V20.1852H206.708V17.8148ZM204.338 17.8148H206.708V20.1852H204.338V17.8148ZM201.968 17.8148H204.338V20.1852H201.968V17.8148ZM201.968 20.1852H204.338V22.5556H201.968V20.1852ZM201.968 22.5556H204.338V24.9259H201.968V22.5556ZM201.968 24.9259H204.338V27.2963H201.968V24.9259ZM204.338 24.9259H206.708V27.2963H204.338V24.9259ZM204.338 22.5556H206.708V24.9259H204.338V22.5556ZM204.338 20.1852H206.708V22.5556H204.338V20.1852ZM216.178 15.4444H218.549V17.8148H216.178V15.4444ZM216.178 17.8148H218.549V20.1852H216.178V17.8148ZM216.178 20.1852H218.549V22.5556H216.178V20.1852ZM216.178 22.5556H218.549V24.9259H216.178V22.5556ZM216.178 24.9259H218.549V27.2963H216.178V24.9259ZM216.178 27.2963H218.549V29.6667H216.178V27.2963ZM216.178 29.6667H218.549V32.037H216.178V29.6667ZM216.178 32.037H218.549V34.4074H216.178V32.037ZM216.178 34.4074H218.549V36.7778H216.178V34.4074ZM216.178 36.7778H218.549V39.1481H216.178V36.7778ZM216.178 39.1481H218.549V41.5185H216.178V39.1481ZM216.178 41.5185H218.549V43.8889H216.178V41.5185ZM216.178 43.8889H218.549V46.2593H216.178V43.8889ZM216.178 46.2593H218.549V48.6296H216.178V46.2593ZM216.178 48.6296H218.549V51H216.178V48.6296ZM213.808 48.6296H216.178V51H213.808V48.6296ZM213.808 46.2593H216.178V48.6296H213.808V46.2593ZM213.808 43.8889H216.178V46.2593H213.808V43.8889ZM213.808 17.8148H216.178V20.1852H213.808V17.8148ZM213.808 15.4444H216.178V17.8148H213.808V15.4444ZM213.808 20.1852H216.178V22.5556H213.808V20.1852ZM213.808 22.5556H216.178V24.9259H213.808V22.5556ZM213.808 24.9259H216.178V27.2963H213.808V24.9259ZM213.808 27.2963H216.178V29.6667H213.808V27.2963ZM213.808 29.6667H216.178V32.037H213.808V29.6667ZM213.808 32.037H216.178V34.4074H213.808V32.037ZM213.808 34.4074H216.178V36.7778H213.808V34.4074ZM213.808 36.7778H216.178V39.1481H213.808V36.7778ZM213.808 39.1481H216.178V41.5185H213.808V39.1481ZM213.808 41.5185H216.178V43.8889H213.808V41.5185ZM218.549 48.6296H220.919V51H218.549V48.6296ZM218.549 46.2593H220.919V48.6296H218.549V46.2593ZM218.549 43.8889H220.919V46.2593H218.549V43.8889ZM218.549 41.5185H220.919V43.8889H218.549V41.5185ZM218.549 36.7778H220.919V39.1481H218.549V36.7778ZM218.549 34.4074H220.919V36.7778H218.549V34.4074ZM218.549 32.037H220.919V34.4074H218.549V32.037ZM218.549 29.6667H220.919V32.037H218.549V29.6667ZM218.549 27.2963H220.919V29.6667H218.549V27.2963ZM218.549 24.9259H220.919V27.2963H218.549V24.9259ZM218.549 15.4444H220.919V17.8148H218.549V15.4444ZM218.549 17.8148H220.919V20.1852H218.549V17.8148ZM218.549 20.1852H220.919V22.5556H218.549V20.1852ZM218.549 22.5556H220.919V24.9259H218.549V22.5556ZM218.549 39.1481H220.919V41.5185H218.549V39.1481ZM220.919 48.6296H223.289V51H220.919V48.6296ZM223.289 48.6296H225.66V51H223.289V48.6296ZM225.66 48.6296H228.03V51H225.66V48.6296ZM225.66 46.2593H228.03V48.6296H225.66V46.2593ZM225.66 43.8889H228.03V46.2593H225.66V43.8889ZM223.289 43.8889H225.66V46.2593H223.289V43.8889ZM223.289 46.2593H225.66V48.6296H223.289V46.2593ZM220.919 46.2593H223.289V48.6296H220.919V46.2593ZM220.919 43.8889H223.289V46.2593H220.919V43.8889ZM228.03 43.8889H230.4V46.2593H228.03V43.8889ZM228.03 46.2593H230.4V48.6296H228.03V46.2593ZM228.03 48.6296H230.4V51H228.03V48.6296ZM230.4 48.6296H232.771V51H230.4V48.6296ZM230.4 46.2593H232.771V48.6296H230.4V46.2593ZM230.4 43.8889H232.771V46.2593H230.4V43.8889ZM232.771 43.8889H235.141V46.2593H232.771V43.8889ZM232.771 46.2593H235.141V48.6296H232.771V46.2593ZM232.771 48.6296H235.141V51H232.771V48.6296ZM220.919 15.4444H223.289V17.8148H220.919V15.4444ZM223.289 15.4444H225.66V17.8148H223.289V15.4444ZM225.66 15.4444H228.03V17.8148H225.66V15.4444ZM228.03 15.4444H230.4V17.8148H228.03V15.4444ZM230.4 15.4444H232.771V17.8148H230.4V15.4444ZM232.771 15.4444H235.141V17.8148H232.771V15.4444ZM232.771 17.8148H235.141V20.1852H232.771V17.8148ZM232.771 20.1852H235.141V22.5556H232.771V20.1852ZM230.4 20.1852H232.771V22.5556H230.4V20.1852ZM228.03 20.1852H230.4V22.5556H228.03V20.1852ZM225.66 20.1852H228.03V22.5556H225.66V20.1852ZM223.289 20.1852H225.66V22.5556H223.289V20.1852ZM223.289 17.8148H225.66V20.1852H223.289V17.8148ZM220.919 17.8148H223.289V20.1852H220.919V17.8148ZM220.919 20.1852H223.289V22.5556H220.919V20.1852ZM225.66 17.8148H228.03V20.1852H225.66V17.8148ZM228.03 17.8148H230.4V20.1852H228.03V17.8148ZM230.4 17.8148H232.771V20.1852H230.4V17.8148ZM220.919 29.6667H223.289V32.037H220.919V29.6667ZM220.919 32.037H223.289V34.4074H220.919V32.037ZM220.919 34.4074H223.289V36.7778H220.919V34.4074ZM223.289 34.4074H225.66V36.7778H223.289V34.4074ZM223.289 32.037H225.66V34.4074H223.289V32.037ZM223.289 29.6667H225.66V32.037H223.289V29.6667ZM225.66 29.6667H228.03V32.037H225.66V29.6667ZM225.66 32.037H228.03V34.4074H225.66V32.037ZM228.03 32.037H230.4V34.4074H228.03V32.037ZM228.03 29.6667H230.4V32.037H228.03V29.6667ZM228.03 34.4074H230.4V36.7778H228.03V34.4074ZM225.66 34.4074H228.03V36.7778H225.66V34.4074ZM230.4 29.6667H232.771V32.037H230.4V29.6667ZM230.4 32.037H232.771V34.4074H230.4V32.037ZM230.4 34.4074H232.771V36.7778H230.4V34.4074ZM246.981 48.6296H249.352V51H246.981V48.6296ZM249.352 48.6296H251.722V51H249.352V48.6296ZM251.722 48.6296H254.093V51H251.722V48.6296ZM251.722 46.2593H254.093V48.6296H251.722V46.2593ZM251.722 43.8889H254.093V46.2593H251.722V43.8889ZM251.722 41.5185H254.093V43.8889H251.722V41.5185ZM251.722 39.1481H254.093V41.5185H251.722V39.1481ZM251.722 36.7778H254.093V39.1481H251.722V36.7778ZM251.722 34.4074H254.093V36.7778H251.722V34.4074ZM251.722 32.037H254.093V34.4074H251.722V32.037ZM251.722 29.6667H254.093V32.037H251.722V29.6667ZM251.722 27.2963H254.093V29.6667H251.722V27.2963ZM251.722 24.9259H254.093V27.2963H251.722V24.9259ZM251.722 22.5556H254.093V24.9259H251.722V22.5556ZM249.352 22.5556H251.722V24.9259H249.352V22.5556ZM249.352 20.1852H251.722V22.5556H249.352V20.1852ZM251.722 20.1852H254.093V22.5556H251.722V20.1852ZM246.981 20.1852H249.352V22.5556H246.981V20.1852ZM246.981 29.6667H249.352V32.037H246.981V29.6667ZM246.981 32.037H249.352V34.4074H246.981V32.037ZM246.981 34.4074H249.352V36.7778H246.981V34.4074ZM246.981 36.7778H249.352V39.1481H246.981V36.7778ZM246.981 39.1481H249.352V41.5185H246.981V39.1481ZM249.352 41.5185H251.722V43.8889H249.352V41.5185ZM249.352 43.8889H251.722V46.2593H249.352V43.8889ZM249.352 46.2593H251.722V48.6296H249.352V46.2593ZM246.981 46.2593H249.352V48.6296H246.981V46.2593ZM246.981 43.8889H249.352V46.2593H246.981V43.8889ZM246.981 41.5185H249.352V43.8889H246.981V41.5185ZM249.352 32.037H251.722V34.4074H249.352V32.037ZM249.352 29.6667H251.722V32.037H249.352V29.6667ZM249.352 27.2963H251.722V29.6667H249.352V27.2963ZM249.352 24.9259H251.722V27.2963H249.352V24.9259ZM246.981 24.9259H249.352V27.2963H246.981V24.9259ZM246.981 27.2963H249.352V29.6667H246.981V27.2963ZM249.352 39.1481H251.722V41.5185H249.352V39.1481ZM249.352 36.7778H251.722V39.1481H249.352V36.7778ZM249.352 34.4074H251.722V36.7778H249.352V34.4074ZM246.981 22.5556H249.352V24.9259H246.981V22.5556ZM246.981 17.8148H249.352V20.1852H246.981V17.8148ZM249.352 17.8148H251.722V20.1852H249.352V17.8148ZM251.722 17.8148H254.093V20.1852H251.722V17.8148ZM251.722 15.4444H254.093V17.8148H251.722V15.4444ZM249.352 15.4444H251.722V17.8148H249.352V15.4444ZM246.981 15.4444H249.352V17.8148H246.981V15.4444ZM244.611 15.4444H246.981V17.8148H244.611V15.4444ZM242.241 15.4444H244.611V17.8148H242.241V15.4444ZM242.241 17.8148H244.611V20.1852H242.241V17.8148ZM242.241 20.1852H244.611V22.5556H242.241V20.1852ZM244.611 17.8148H246.981V20.1852H244.611V17.8148ZM244.611 20.1852H246.981V22.5556H244.611V20.1852ZM254.093 15.4444H256.463V17.8148H254.093V15.4444ZM256.463 15.4444H258.833V17.8148H256.463V15.4444ZM256.463 17.8148H258.833V20.1852H256.463V17.8148ZM256.463 20.1852H258.833V22.5556H256.463V20.1852ZM254.093 20.1852H256.463V22.5556H254.093V20.1852ZM254.093 17.8148H256.463V20.1852H254.093V17.8148ZM258.833 15.4444H261.204V17.8148H258.833V15.4444ZM258.833 17.8148H261.204V20.1852H258.833V17.8148ZM258.833 20.1852H261.204V22.5556H258.833V20.1852ZM239.87 15.4444H242.241V17.8148H239.87V15.4444ZM239.87 17.8148H242.241V20.1852H239.87V17.8148ZM239.87 20.1852H242.241V22.5556H239.87V20.1852ZM265.933 15.4444H268.303V17.8148H265.933V15.4444ZM268.303 15.4444H270.674V17.8148H268.303V15.4444ZM270.674 15.4444H273.044V17.8148H270.674V15.4444ZM273.044 15.4444H275.414V17.8148H273.044V15.4444ZM275.414 15.4444H277.785V17.8148H275.414V15.4444ZM277.785 15.4444H280.155V17.8148H277.785V15.4444ZM280.155 15.4444H282.525V17.8148H280.155V15.4444ZM282.525 15.4444H284.896V17.8148H282.525V15.4444ZM282.525 17.8148H284.896V20.1852H282.525V17.8148ZM284.896 17.8148H287.266V20.1852H284.896V17.8148ZM280.155 17.8148H282.525V20.1852H280.155V17.8148ZM277.785 17.8148H280.155V20.1852H277.785V17.8148ZM275.414 17.8148H277.785V20.1852H275.414V17.8148ZM273.044 17.8148H275.414V20.1852H273.044V17.8148ZM270.674 17.8148H273.044V20.1852H270.674V17.8148ZM268.303 17.8148H270.674V20.1852H268.303V17.8148ZM265.933 17.8148H268.303V20.1852H265.933V17.8148ZM265.933 20.1852H268.303V22.5556H265.933V20.1852ZM268.303 20.1852H270.674V22.5556H268.303V20.1852ZM270.674 20.1852H273.044V22.5556H270.674V20.1852ZM273.044 20.1852H275.414V22.5556H273.044V20.1852ZM277.785 20.1852H280.155V22.5556H277.785V20.1852ZM280.155 20.1852H282.525V22.5556H280.155V20.1852ZM282.525 20.1852H284.896V22.5556H282.525V20.1852ZM284.896 20.1852H287.266V22.5556H284.896V20.1852ZM287.266 20.1852H289.637V22.5556H287.266V20.1852ZM275.414 20.1852H277.785V22.5556H275.414V20.1852ZM280.155 22.5556H282.525V24.9259H280.155V22.5556ZM282.525 22.5556H284.896V24.9259H282.525V22.5556ZM287.266 22.5556H289.637V24.9259H287.266V22.5556ZM284.896 22.5556H287.266V24.9259H284.896V22.5556ZM284.896 24.9259H287.266V27.2963H284.896V24.9259ZM284.896 29.6667H287.266V32.037H284.896V29.6667ZM287.266 29.6667H289.637V32.037H287.266V29.6667ZM287.266 32.037H289.637V34.4074H287.266V32.037ZM287.266 24.9259H289.637V27.2963H287.266V24.9259ZM282.525 29.6667H284.896V32.037H282.525V29.6667ZM282.525 24.9259H284.896V27.2963H282.525V24.9259ZM280.155 29.6667H282.525V32.037H280.155V29.6667ZM282.525 32.037H284.896V34.4074H282.525V32.037ZM284.896 32.037H287.266V34.4074H284.896V32.037ZM284.896 34.4074H287.266V36.7778H284.896V34.4074ZM280.155 36.7778H282.525V39.1481H280.155V36.7778ZM282.525 36.7778H284.896V39.1481H282.525V36.7778ZM282.525 34.4074H284.896V36.7778H282.525V34.4074ZM280.155 34.4074H282.525V36.7778H280.155V34.4074ZM280.155 32.037H282.525V34.4074H280.155V32.037ZM277.785 36.7778H280.155V39.1481H277.785V36.7778ZM275.414 36.7778H277.785V39.1481H275.414V36.7778ZM273.044 36.7778H275.414V39.1481H273.044V36.7778ZM273.044 34.4074H275.414V36.7778H273.044V34.4074ZM275.414 34.4074H277.785V36.7778H275.414V34.4074ZM275.414 32.037H277.785V34.4074H275.414V32.037ZM277.785 32.037H280.155V34.4074H277.785V32.037ZM273.044 32.037H275.414V34.4074H273.044V32.037ZM277.785 34.4074H280.155V36.7778H277.785V34.4074ZM268.303 22.5556H270.674V24.9259H268.303V22.5556ZM270.674 22.5556H273.044V24.9259H270.674V22.5556ZM270.674 24.9259H273.044V27.2963H270.674V24.9259ZM270.674 27.2963H273.044V29.6667H270.674V27.2963ZM270.674 29.6667H273.044V32.037H270.674V29.6667ZM268.303 29.6667H270.674V32.037H268.303V29.6667ZM265.933 29.6667H268.303V32.037H265.933V29.6667ZM265.933 27.2963H268.303V29.6667H265.933V27.2963ZM265.933 24.9259H268.303V27.2963H265.933V24.9259ZM265.933 22.5556H268.303V24.9259H265.933V22.5556ZM268.303 27.2963H270.674V29.6667H268.303V27.2963ZM268.303 32.037H270.674V34.4074H268.303V32.037ZM268.303 24.9259H270.674V27.2963H268.303V24.9259ZM265.933 32.037H268.303V34.4074H265.933V32.037ZM265.933 34.4074H268.303V36.7778H265.933V34.4074ZM268.303 34.4074H270.674V36.7778H268.303V34.4074ZM270.674 32.037H273.044V34.4074H270.674V32.037ZM270.674 34.4074H273.044V36.7778H270.674V34.4074ZM270.674 36.7778H273.044V39.1481H270.674V36.7778ZM270.674 39.1481H273.044V41.5185H270.674V39.1481ZM270.674 41.5185H273.044V43.8889H270.674V41.5185ZM270.674 43.8889H273.044V46.2593H270.674V43.8889ZM270.674 48.6296H273.044V51H270.674V48.6296ZM268.303 48.6296H270.674V51H268.303V48.6296ZM265.933 48.6296H268.303V51H265.933V48.6296ZM265.933 46.2593H268.303V48.6296H265.933V46.2593ZM265.933 43.8889H268.303V46.2593H265.933V43.8889ZM265.933 41.5185H268.303V43.8889H265.933V41.5185ZM265.933 39.1481H268.303V41.5185H265.933V39.1481ZM265.933 36.7778H268.303V39.1481H265.933V36.7778ZM268.303 36.7778H270.674V39.1481H268.303V36.7778ZM268.303 39.1481H270.674V41.5185H268.303V39.1481ZM268.303 41.5185H270.674V43.8889H268.303V41.5185ZM268.303 43.8889H270.674V46.2593H268.303V43.8889ZM268.303 46.2593H270.674V48.6296H268.303V46.2593ZM270.674 46.2593H273.044V48.6296H270.674V46.2593ZM287.266 27.2963H289.637V29.6667H287.266V27.2963ZM284.896 27.2963H287.266V29.6667H284.896V27.2963ZM282.525 27.2963H284.896V29.6667H282.525V27.2963ZM296.741 15.4444H299.111V17.8148H296.741V15.4444ZM296.741 17.8148H299.111V20.1852H296.741V17.8148ZM296.741 20.1852H299.111V22.5556H296.741V20.1852ZM296.741 22.5556H299.111V24.9259H296.741V22.5556ZM296.741 24.9259H299.111V27.2963H296.741V24.9259ZM296.741 27.2963H299.111V29.6667H296.741V27.2963ZM296.741 29.6667H299.111V32.037H296.741V29.6667ZM296.741 32.037H299.111V34.4074H296.741V32.037ZM296.741 34.4074H299.111V36.7778H296.741V34.4074ZM296.741 36.7778H299.111V39.1481H296.741V36.7778ZM296.741 39.1481H299.111V41.5185H296.741V39.1481ZM296.741 41.5185H299.111V43.8889H296.741V41.5185ZM296.741 43.8889H299.111V46.2593H296.741V43.8889ZM296.741 46.2593H299.111V48.6296H296.741V46.2593ZM296.741 48.6296H299.111V51H296.741V48.6296ZM294.37 48.6296H296.741V51H294.37V48.6296ZM294.37 46.2593H296.741V48.6296H294.37V46.2593ZM294.37 43.8889H296.741V46.2593H294.37V43.8889ZM294.37 17.8148H296.741V20.1852H294.37V17.8148ZM294.37 15.4444H296.741V17.8148H294.37V15.4444ZM294.37 20.1852H296.741V22.5556H294.37V20.1852ZM294.37 22.5556H296.741V24.9259H294.37V22.5556ZM294.37 24.9259H296.741V27.2963H294.37V24.9259ZM294.37 27.2963H296.741V29.6667H294.37V27.2963ZM294.37 29.6667H296.741V32.037H294.37V29.6667ZM294.37 32.037H296.741V34.4074H294.37V32.037ZM294.37 34.4074H296.741V36.7778H294.37V34.4074ZM294.37 36.7778H296.741V39.1481H294.37V36.7778ZM294.37 39.1481H296.741V41.5185H294.37V39.1481ZM294.37 41.5185H296.741V43.8889H294.37V41.5185ZM299.111 48.6296H301.481V51H299.111V48.6296ZM299.111 46.2593H301.481V48.6296H299.111V46.2593ZM299.111 43.8889H301.481V46.2593H299.111V43.8889ZM299.111 41.5185H301.481V43.8889H299.111V41.5185ZM299.111 36.7778H301.481V39.1481H299.111V36.7778ZM299.111 34.4074H301.481V36.7778H299.111V34.4074ZM299.111 32.037H301.481V34.4074H299.111V32.037ZM299.111 29.6667H301.481V32.037H299.111V29.6667ZM299.111 27.2963H301.481V29.6667H299.111V27.2963ZM299.111 24.9259H301.481V27.2963H299.111V24.9259ZM299.111 15.4444H301.481V17.8148H299.111V15.4444ZM299.111 17.8148H301.481V20.1852H299.111V17.8148ZM299.111 20.1852H301.481V22.5556H299.111V20.1852ZM299.111 22.5556H301.481V24.9259H299.111V22.5556ZM299.111 39.1481H301.481V41.5185H299.111V39.1481ZM301.481 48.6296H303.852V51H301.481V48.6296ZM303.852 48.6296H306.222V51H303.852V48.6296ZM306.222 48.6296H308.593V51H306.222V48.6296ZM306.222 46.2593H308.593V48.6296H306.222V46.2593ZM306.222 43.8889H308.593V46.2593H306.222V43.8889ZM303.852 43.8889H306.222V46.2593H303.852V43.8889ZM303.852 46.2593H306.222V48.6296H303.852V46.2593ZM301.481 46.2593H303.852V48.6296H301.481V46.2593ZM301.481 43.8889H303.852V46.2593H301.481V43.8889ZM308.593 43.8889H310.963V46.2593H308.593V43.8889ZM308.593 46.2593H310.963V48.6296H308.593V46.2593ZM308.593 48.6296H310.963V51H308.593V48.6296ZM310.963 48.6296H313.333V51H310.963V48.6296ZM310.963 46.2593H313.333V48.6296H310.963V46.2593ZM310.963 43.8889H313.333V46.2593H310.963V43.8889ZM327.539 15.4444H329.91V17.8148H327.539V15.4444ZM329.91 15.4444H332.28V17.8148H329.91V15.4444ZM329.91 17.8148H332.28V20.1852H329.91V17.8148ZM332.28 17.8148H334.65V20.1852H332.28V17.8148ZM327.539 17.8148H329.91V20.1852H327.539V17.8148ZM325.169 17.8148H327.539V20.1852H325.169V17.8148ZM325.169 20.1852H327.539V22.5556H325.169V20.1852ZM322.799 20.1852H325.169V22.5556H322.799V20.1852ZM327.539 20.1852H329.91V22.5556H327.539V20.1852ZM329.91 20.1852H332.28V22.5556H329.91V20.1852ZM332.28 20.1852H334.65V22.5556H332.28V20.1852ZM334.65 20.1852H337.021V22.5556H334.65V20.1852ZM334.65 22.5556H337.021V24.9259H334.65V22.5556ZM337.021 22.5556H339.391V24.9259H337.021V22.5556ZM332.28 22.5556H334.65V24.9259H332.28V22.5556ZM329.91 22.5556H332.28V24.9259H329.91V22.5556ZM327.539 22.5556H329.91V24.9259H327.539V22.5556ZM325.169 22.5556H327.539V24.9259H325.169V22.5556ZM322.799 22.5556H325.169V24.9259H322.799V22.5556ZM320.428 22.5556H322.799V24.9259H320.428V22.5556ZM325.169 24.9259H327.539V27.2963H325.169V24.9259ZM322.799 24.9259H325.169V27.2963H322.799V24.9259ZM320.428 24.9259H322.799V27.2963H320.428V24.9259ZM318.058 24.9259H320.428V27.2963H318.058V24.9259ZM318.058 27.2963H320.428V29.6667H318.058V27.2963ZM318.058 29.6667H320.428V32.037H318.058V29.6667ZM320.428 29.6667H322.799V32.037H320.428V29.6667ZM320.428 27.2963H322.799V29.6667H320.428V27.2963ZM322.799 27.2963H325.169V29.6667H322.799V27.2963ZM322.799 29.6667H325.169V32.037H322.799V29.6667ZM322.799 32.037H325.169V34.4074H322.799V32.037ZM320.428 32.037H322.799V34.4074H320.428V32.037ZM318.058 32.037H320.428V34.4074H318.058V32.037ZM318.058 34.4074H320.428V36.7778H318.058V34.4074ZM320.428 34.4074H322.799V36.7778H320.428V34.4074ZM322.799 34.4074H325.169V36.7778H322.799V34.4074ZM325.169 34.4074H327.539V36.7778H325.169V34.4074ZM327.539 34.4074H329.91V36.7778H327.539V34.4074ZM329.91 34.4074H332.28V36.7778H329.91V34.4074ZM332.28 34.4074H334.65V36.7778H332.28V34.4074ZM334.65 32.037H337.021V34.4074H334.65V32.037ZM337.021 32.037H339.391V34.4074H337.021V32.037ZM337.021 34.4074H339.391V36.7778H337.021V34.4074ZM334.65 34.4074H337.021V36.7778H334.65V34.4074ZM339.391 34.4074H341.762V36.7778H339.391V34.4074ZM339.391 32.037H341.762V34.4074H339.391V32.037ZM339.391 29.6667H341.762V32.037H339.391V29.6667ZM339.391 27.2963H341.762V29.6667H339.391V27.2963ZM339.391 24.9259H341.762V27.2963H339.391V24.9259ZM337.021 24.9259H339.391V27.2963H337.021V24.9259ZM334.65 24.9259H337.021V27.2963H334.65V24.9259ZM332.28 24.9259H334.65V27.2963H332.28V24.9259ZM337.021 27.2963H339.391V29.6667H337.021V27.2963ZM337.021 29.6667H339.391V32.037H337.021V29.6667ZM334.65 29.6667H337.021V32.037H334.65V29.6667ZM334.65 27.2963H337.021V29.6667H334.65V27.2963ZM318.058 36.7778H320.428V39.1481H318.058V36.7778ZM320.428 36.7778H322.799V39.1481H320.428V36.7778ZM322.799 36.7778H325.169V39.1481H322.799V36.7778ZM325.169 36.7778H327.539V39.1481H325.169V36.7778ZM327.539 36.7778H329.91V39.1481H327.539V36.7778ZM329.91 36.7778H332.28V39.1481H329.91V36.7778ZM332.28 36.7778H334.65V39.1481H332.28V36.7778ZM334.65 36.7778H337.021V39.1481H334.65V36.7778ZM337.021 36.7778H339.391V39.1481H337.021V36.7778ZM339.391 36.7778H341.762V39.1481H339.391V36.7778ZM339.391 39.1481H341.762V41.5185H339.391V39.1481ZM337.021 39.1481H339.391V41.5185H337.021V39.1481ZM334.65 39.1481H337.021V41.5185H334.65V39.1481ZM332.28 39.1481H334.65V41.5185H332.28V39.1481ZM329.91 39.1481H332.28V41.5185H329.91V39.1481ZM327.539 39.1481H329.91V41.5185H327.539V39.1481ZM325.169 39.1481H327.539V41.5185H325.169V39.1481ZM320.428 39.1481H322.799V41.5185H320.428V39.1481ZM318.058 39.1481H320.428V41.5185H318.058V39.1481ZM322.799 39.1481H325.169V41.5185H322.799V39.1481ZM322.799 41.5185H325.169V43.8889H322.799V41.5185ZM322.799 43.8889H325.169V46.2593H322.799V43.8889ZM322.799 46.2593H325.169V48.6296H322.799V46.2593ZM322.799 48.6296H325.169V51H322.799V48.6296ZM320.428 48.6296H322.799V51H320.428V48.6296ZM318.058 48.6296H320.428V51H318.058V48.6296ZM318.058 46.2593H320.428V48.6296H318.058V46.2593ZM318.058 43.8889H320.428V46.2593H318.058V43.8889ZM318.058 41.5185H320.428V43.8889H318.058V41.5185ZM320.428 41.5185H322.799V43.8889H320.428V41.5185ZM320.428 43.8889H322.799V46.2593H320.428V43.8889ZM320.428 46.2593H322.799V48.6296H320.428V46.2593ZM334.65 41.5185H337.021V43.8889H334.65V41.5185ZM334.65 43.8889H337.021V46.2593H334.65V43.8889ZM334.65 46.2593H337.021V48.6296H334.65V46.2593ZM334.65 48.6296H337.021V51H334.65V48.6296ZM337.021 48.6296H339.391V51H337.021V48.6296ZM339.391 48.6296H341.762V51H339.391V48.6296ZM339.391 46.2593H341.762V48.6296H339.391V46.2593ZM339.391 43.8889H341.762V46.2593H339.391V43.8889ZM339.391 41.5185H341.762V43.8889H339.391V41.5185ZM337.021 41.5185H339.391V43.8889H337.021V41.5185ZM337.021 43.8889H339.391V46.2593H337.021V43.8889ZM337.021 46.2593H339.391V48.6296H337.021V46.2593ZM351.236 15.4444H353.606V17.8148H351.236V15.4444ZM353.606 15.4444H355.977V17.8148H353.606V15.4444ZM355.977 15.4444H358.347V17.8148H355.977V15.4444ZM358.347 15.4444H360.718V17.8148H358.347V15.4444ZM360.718 15.4444H363.088V17.8148H360.718V15.4444ZM363.088 15.4444H365.458V17.8148H363.088V15.4444ZM363.088 17.8148H365.458V20.1852H363.088V17.8148ZM365.458 17.8148H367.829V20.1852H365.458V17.8148ZM360.718 17.8148H363.088V20.1852H360.718V17.8148ZM358.347 17.8148H360.718V20.1852H358.347V17.8148ZM355.977 17.8148H358.347V20.1852H355.977V17.8148ZM353.606 17.8148H355.977V20.1852H353.606V17.8148ZM351.236 17.8148H353.606V20.1852H351.236V17.8148ZM348.866 20.1852H351.236V22.5556H348.866V20.1852ZM348.866 17.8148H351.236V20.1852H348.866V17.8148ZM346.495 20.1852H348.866V22.5556H346.495V20.1852ZM351.236 20.1852H353.606V22.5556H351.236V20.1852ZM353.606 20.1852H355.977V22.5556H353.606V20.1852ZM355.977 20.1852H358.347V22.5556H355.977V20.1852ZM358.347 20.1852H360.718V22.5556H358.347V20.1852ZM360.718 20.1852H363.088V22.5556H360.718V20.1852ZM363.088 20.1852H365.458V22.5556H363.088V20.1852ZM365.458 20.1852H367.829V22.5556H365.458V20.1852ZM367.829 20.1852H370.199V22.5556H367.829V20.1852ZM367.829 22.5556H370.199V24.9259H367.829V22.5556ZM365.458 22.5556H367.829V24.9259H365.458V22.5556ZM363.088 22.5556H365.458V24.9259H363.088V22.5556ZM360.718 22.5556H363.088V24.9259H360.718V22.5556ZM363.088 24.9259H365.458V27.2963H363.088V24.9259ZM367.829 24.9259H370.199V27.2963H367.829V24.9259ZM365.458 24.9259H367.829V27.2963H365.458V24.9259ZM367.829 39.1481H370.199V41.5185H367.829V39.1481ZM367.829 41.5185H370.199V43.8889H367.829V41.5185ZM367.829 43.8889H370.199V46.2593H367.829V43.8889ZM365.458 43.8889H367.829V46.2593H365.458V43.8889ZM365.458 41.5185H367.829V43.8889H365.458V41.5185ZM365.458 39.1481H367.829V41.5185H365.458V39.1481ZM363.088 39.1481H365.458V41.5185H363.088V39.1481ZM363.088 41.5185H365.458V43.8889H363.088V41.5185ZM360.718 41.5185H363.088V43.8889H360.718V41.5185ZM363.088 43.8889H365.458V46.2593H363.088V43.8889ZM365.458 46.2593H367.829V48.6296H365.458V46.2593ZM363.088 46.2593H365.458V48.6296H363.088V46.2593ZM360.718 43.8889H363.088V46.2593H360.718V43.8889ZM360.718 46.2593H363.088V48.6296H360.718V46.2593ZM363.088 48.6296H365.458V51H363.088V48.6296ZM360.718 48.6296H363.088V51H360.718V48.6296ZM358.347 48.6296H360.718V51H358.347V48.6296ZM355.977 48.6296H358.347V51H355.977V48.6296ZM353.606 48.6296H355.977V51H353.606V48.6296ZM351.236 48.6296H353.606V51H351.236V48.6296ZM351.236 46.2593H353.606V48.6296H351.236V46.2593ZM353.606 46.2593H355.977V48.6296H353.606V46.2593ZM353.606 43.8889H355.977V46.2593H353.606V43.8889ZM355.977 43.8889H358.347V46.2593H355.977V43.8889ZM358.347 43.8889H360.718V46.2593H358.347V43.8889ZM358.347 46.2593H360.718V48.6296H358.347V46.2593ZM355.977 46.2593H358.347V48.6296H355.977V46.2593ZM348.866 46.2593H351.236V48.6296H348.866V46.2593ZM351.236 43.8889H353.606V46.2593H351.236V43.8889ZM353.606 41.5185H355.977V43.8889H353.606V41.5185ZM351.236 41.5185H353.606V43.8889H351.236V41.5185ZM348.866 41.5185H351.236V43.8889H348.866V41.5185ZM348.866 43.8889H351.236V46.2593H348.866V43.8889ZM346.495 43.8889H348.866V46.2593H346.495V43.8889ZM346.495 41.5185H348.866V43.8889H346.495V41.5185ZM346.495 39.1481H348.866V41.5185H346.495V39.1481ZM346.495 36.7778H348.866V39.1481H346.495V36.7778ZM346.495 34.4074H348.866V36.7778H346.495V34.4074ZM346.495 32.037H348.866V34.4074H346.495V32.037ZM346.495 29.6667H348.866V32.037H346.495V29.6667ZM346.495 27.2963H348.866V29.6667H346.495V27.2963ZM346.495 24.9259H348.866V27.2963H346.495V24.9259ZM346.495 22.5556H348.866V24.9259H346.495V22.5556ZM348.866 22.5556H351.236V24.9259H348.866V22.5556ZM351.236 22.5556H353.606V24.9259H351.236V22.5556ZM353.606 22.5556H355.977V24.9259H353.606V22.5556ZM351.236 24.9259H353.606V27.2963H351.236V24.9259ZM351.236 27.2963H353.606V29.6667H351.236V27.2963ZM351.236 29.6667H353.606V32.037H351.236V29.6667ZM351.236 32.037H353.606V34.4074H351.236V32.037ZM351.236 34.4074H353.606V36.7778H351.236V34.4074ZM351.236 36.7778H353.606V39.1481H351.236V36.7778ZM351.236 39.1481H353.606V41.5185H351.236V39.1481ZM348.866 39.1481H351.236V41.5185H348.866V39.1481ZM348.866 36.7778H351.236V39.1481H348.866V36.7778ZM348.866 34.4074H351.236V36.7778H348.866V34.4074ZM348.866 32.037H351.236V34.4074H348.866V32.037ZM348.866 29.6667H351.236V32.037H348.866V29.6667ZM348.866 27.2963H351.236V29.6667H348.866V27.2963ZM348.866 24.9259H351.236V27.2963H348.866V24.9259ZM377.303 15.4444H379.674V17.8148H377.303V15.4444ZM377.303 17.8148H379.674V20.1852H377.303V17.8148ZM377.303 20.1852H379.674V22.5556H377.303V20.1852ZM377.303 22.5556H379.674V24.9259H377.303V22.5556ZM377.303 24.9259H379.674V27.2963H377.303V24.9259ZM377.303 27.2963H379.674V29.6667H377.303V27.2963ZM377.303 29.6667H379.674V32.037H377.303V29.6667ZM377.303 32.037H379.674V34.4074H377.303V32.037ZM377.303 34.4074H379.674V36.7778H377.303V34.4074ZM377.303 36.7778H379.674V39.1481H377.303V36.7778ZM377.303 39.1481H379.674V41.5185H377.303V39.1481ZM377.303 41.5185H379.674V43.8889H377.303V41.5185ZM377.303 43.8889H379.674V46.2593H377.303V43.8889ZM377.303 46.2593H379.674V48.6296H377.303V46.2593ZM377.303 48.6296H379.674V51H377.303V48.6296ZM374.933 48.6296H377.303V51H374.933V48.6296ZM374.933 46.2593H377.303V48.6296H374.933V46.2593ZM374.933 43.8889H377.303V46.2593H374.933V43.8889ZM374.933 17.8148H377.303V20.1852H374.933V17.8148ZM374.933 15.4444H377.303V17.8148H374.933V15.4444ZM374.933 20.1852H377.303V22.5556H374.933V20.1852ZM374.933 22.5556H377.303V24.9259H374.933V22.5556ZM374.933 24.9259H377.303V27.2963H374.933V24.9259ZM374.933 27.2963H377.303V29.6667H374.933V27.2963ZM374.933 29.6667H377.303V32.037H374.933V29.6667ZM374.933 32.037H377.303V34.4074H374.933V32.037ZM374.933 34.4074H377.303V36.7778H374.933V34.4074ZM374.933 36.7778H377.303V39.1481H374.933V36.7778ZM374.933 39.1481H377.303V41.5185H374.933V39.1481ZM374.933 41.5185H377.303V43.8889H374.933V41.5185ZM379.674 48.6296H382.044V51H379.674V48.6296ZM379.674 46.2593H382.044V48.6296H379.674V46.2593ZM379.674 43.8889H382.044V46.2593H379.674V43.8889ZM379.674 41.5185H382.044V43.8889H379.674V41.5185ZM379.674 36.7778H382.044V39.1481H379.674V36.7778ZM379.674 34.4074H382.044V36.7778H379.674V34.4074ZM379.674 32.037H382.044V34.4074H379.674V32.037ZM379.674 29.6667H382.044V32.037H379.674V29.6667ZM379.674 27.2963H382.044V29.6667H379.674V27.2963ZM379.674 24.9259H382.044V27.2963H379.674V24.9259ZM379.674 15.4444H382.044V17.8148H379.674V15.4444ZM379.674 17.8148H382.044V20.1852H379.674V17.8148ZM379.674 20.1852H382.044V22.5556H379.674V20.1852ZM379.674 22.5556H382.044V24.9259H379.674V22.5556ZM379.674 39.1481H382.044V41.5185H379.674V39.1481ZM382.044 48.6296H384.414V51H382.044V48.6296ZM384.414 48.6296H386.785V51H384.414V48.6296ZM386.785 48.6296H389.155V51H386.785V48.6296ZM386.785 46.2593H389.155V48.6296H386.785V46.2593ZM386.785 43.8889H389.155V46.2593H386.785V43.8889ZM384.414 43.8889H386.785V46.2593H384.414V43.8889ZM384.414 46.2593H386.785V48.6296H384.414V46.2593ZM382.044 46.2593H384.414V48.6296H382.044V46.2593ZM382.044 43.8889H384.414V46.2593H382.044V43.8889ZM389.155 43.8889H391.525V46.2593H389.155V43.8889ZM389.155 46.2593H391.525V48.6296H389.155V46.2593ZM389.155 48.6296H391.525V51H389.155V48.6296ZM391.525 48.6296H393.896V51H391.525V48.6296ZM391.525 46.2593H393.896V48.6296H391.525V46.2593ZM391.525 43.8889H393.896V46.2593H391.525V43.8889ZM393.896 43.8889H396.266V46.2593H393.896V43.8889ZM393.896 46.2593H396.266V48.6296H393.896V46.2593ZM393.896 48.6296H396.266V51H393.896V48.6296ZM382.044 15.4444H384.414V17.8148H382.044V15.4444ZM384.414 15.4444H386.785V17.8148H384.414V15.4444ZM386.785 15.4444H389.155V17.8148H386.785V15.4444ZM389.155 15.4444H391.525V17.8148H389.155V15.4444ZM391.525 15.4444H393.896V17.8148H391.525V15.4444ZM393.896 15.4444H396.266V17.8148H393.896V15.4444ZM393.896 17.8148H396.266V20.1852H393.896V17.8148ZM393.896 20.1852H396.266V22.5556H393.896V20.1852ZM391.525 20.1852H393.896V22.5556H391.525V20.1852ZM389.155 20.1852H391.525V22.5556H389.155V20.1852ZM386.785 20.1852H389.155V22.5556H386.785V20.1852ZM384.414 20.1852H386.785V22.5556H384.414V20.1852ZM384.414 17.8148H386.785V20.1852H384.414V17.8148ZM382.044 17.8148H384.414V20.1852H382.044V17.8148ZM382.044 20.1852H384.414V22.5556H382.044V20.1852ZM386.785 17.8148H389.155V20.1852H386.785V17.8148ZM389.155 17.8148H391.525V20.1852H389.155V17.8148ZM391.525 17.8148H393.896V20.1852H391.525V17.8148ZM382.044 29.6667H384.414V32.037H382.044V29.6667ZM382.044 32.037H384.414V34.4074H382.044V32.037ZM382.044 34.4074H384.414V36.7778H382.044V34.4074ZM384.414 34.4074H386.785V36.7778H384.414V34.4074ZM384.414 32.037H386.785V34.4074H384.414V32.037ZM384.414 29.6667H386.785V32.037H384.414V29.6667ZM386.785 29.6667H389.155V32.037H386.785V29.6667ZM386.785 32.037H389.155V34.4074H386.785V32.037ZM389.155 32.037H391.525V34.4074H389.155V32.037ZM389.155 29.6667H391.525V32.037H389.155V29.6667ZM389.155 34.4074H391.525V36.7778H389.155V34.4074ZM386.785 34.4074H389.155V36.7778H386.785V34.4074ZM391.525 29.6667H393.896V32.037H391.525V29.6667ZM391.525 32.037H393.896V34.4074H391.525V32.037ZM391.525 34.4074H393.896V36.7778H391.525V34.4074Z" fill="black"/>
</svg>
